***************************************************************
 
http://www.torrentforce.org/imghost/3/greyshadow_tfbanner.png

***************************************************************
 
http://www.torrentforce.org/imghost/4/greyshadow_abetterlife.jpg

***************************************************************

FILM TITLE: A Better Life (2011)

***************************************************************

Genre: Drama   

Rated PG-13 for some violence, language and brief drug use

Release: 29 July 2011 (Ireland)

Director: Chris Weitz

Writer: Eric Eason (screenplay), Roger L. Simon (story)

Stars: Demián Bichir, José Julián and Eddie 'Piolin' Sotelo 

Country: USA 

Language: English

Plot:
A gardener in East L.A. struggles to keep his son away from gangs 
and immigration agents while trying to give his son the opportunities 
he never had.

IMDB Rating: 
 
http://www.imdb.com/title/tt1554091/ 

****************************************************************
 
http://www.torrentforce.org/imghost/4/greyshadow_abetterlifex2641.png 
http://www.torrentforce.org/imghost/4/greyshadow_abetterlifex2642.png 
http://www.torrentforce.org/imghost/4/greyshadow_abetterlifex2643.png 
http://www.torrentforce.org/imghost/4/greyshadow_abetterlifex2644.png

****************************************************************

[IMG]http://www.torrentforce.org/imghost/2/greyshadow_mediainfo.png[/IMG]
General
Complete name                    : A Better Life 2011 720p BDRip x264 aac (mp4) [TFRG].mp4
Format                           : MPEG-4
Format profile                   : Base Media
Codec ID                         : isom
File size                        : 2.46 GiB
Duration                         : 1h 37mn
Overall bit rate                 : 3613 Kbps
Encoded date                     : UTC 2011-10-12 13:07:13
Tagged date                      : UTC 2011-10-12 13:07:13

Video
ID                               : 1
Format                           : AVC
Format/Info                      : Advanced Video Codec
Format profile                   : High@L4.1
Format settings, CABAC           : Yes
Format settings, ReFrames        : 9 frames
Codec ID                         : avc1
Codec ID/Info                    : Advanced Video Coding
Duration                         : 1h 37mn
Bit rate                         : 3200 Kbps
Maximum bit rate                 : 14.4 Mbps
Width                            : 1280 pixels
Height                           : 720 pixels
Display aspect ratio             : 16:9
Frame rate mode                  : Constant
Frame rate                       : 23.976 fps
Color space                      : YUV
Chroma subsampling               : 4:2:0
Bit depth                        : 8 bits
Scan type                        : Progressive
Bits/(Pixel*Frame)               : 0.145
Stream size                      : 2.18 GiB (89%)
Title                            : A Better Life AVC MPEG4 Video
Writing library                  : x264 core 118 r2085 8a62835
Encoded date                     : UTC 2011-10-11 17:42:59
Tagged date                      : UTC 2011-10-12 13:08:04
Color primaries                  : BT.709-5, BT.1361, IEC 61966-2-4, SMPTE RP177
Transfer characteristics         : BT.709-5, BT.1361
Matrix coefficients              : BT.709-5, BT.1361, IEC 61966-2-4 709, SMPTE RP177

Audio
ID                               : 2
Format                           : AAC
Format/Info                      : Advanced Audio Codec
Format profile                   : LC
Codec ID                         : 40
Duration                         : 1h 37mn
Bit rate mode                    : Variable
Bit rate                         : 411 Kbps
Maximum bit rate                 : 510 Kbps
Channel(s)                       : 6 channels
Channel positions                : Front: L C R, Side: L R, LFE
Sampling rate                    : 48.0 KHz
Compression mode                 : Lossy
Stream size                      : 287 MiB (11%)
Title                            : A Better Life AAC 5.1 Audio
Language                         : English
Encoded date                     : UTC 2011-10-12 13:07:57
Tagged date                      : UTC 2011-10-12 13:08:04

Subtitles: English for foreign parts (hard subbed)

****************************************************************

Video Source: A Better Life 2011 BluRay 1080p AVC DTS-HD MA5.1-CHDBits (22.8GB)

Thanks: (chdbits.org)

****************************************************************

I provide a small sample, so please download this to check your 
compatibility first if you are unsure.

****************************************************************

7th October 2011

I am re-introducing my warning to all downloaders, please please
please use a proxy or vpn service, it is the only secure way to
keep your own ip address from being seen during downloading or
uploading/seeding, this WILL stop isp letters, as for advice to 
which one then thats simple, vpntunnel.se server based in Sweden 
is the right one to use, I have cancelled my vpn and transfered 
to a Swedish one already !!! enough said. 

****************************************************************

A big thanks to all the sites out there who care and share and
who make it possible for you to download this torrent for free.

Greetz to Westy, Ripwyn, mustang, noir, Blackjesus, MXMG, The Stig 
and all the other outstanding members of our community of file 
sharers and a special mention to our friends at 1337x.

****************************************************************